<svg width="112" height="56" viewBox="0 0 112 56" fill="none" xmlns="http://www.w3.org/2000/svg">
<rect x="0.5" y="0.5" width="111" height="55" stroke="black" stroke-opacity="0.1"/>
<path d="M9.15823 18.7013H0.308105V14.2646H22.8702V18.6643H14.0581V41.3287H9.12025L9.15823 18.7013ZM48.433 42.1421L45.0905 39.2582C42.7355 40.8481 39.8868 41.8094 36.6202 41.8094C28.074 41.8094 22.1106 35.524 22.1106 27.9076V27.8336C22.1106 20.2172 28.1499 13.8578 36.6962 13.8578C45.2424 13.8578 51.2058 20.1432 51.2058 27.7597V27.8336C51.2058 30.9024 50.1803 33.7862 48.3951 36.1525L51.5857 38.7776L48.433 42.1421ZM41.5201 36.1525L36.6962 32.1594L39.8488 28.684L44.7487 33.0098C45.6223 31.5309 46.1161 29.7932 46.1161 27.8706V27.7966C46.1161 22.5465 42.1658 18.1837 36.6582 18.1837C31.1506 18.1837 27.2763 22.4725 27.2763 27.7227V27.7966C27.2763 33.0468 31.2266 37.3726 36.7342 37.3726C38.5194 37.4096 40.1527 36.9289 41.5201 36.1525ZM55.5359 14.2646H60.4358V37.0029H75.0594V41.3287H55.5739L55.5359 14.2646Z" fill="#F7F8FC"/>
<path d="M98.6875 28.7073C103.038 26.7418 106.479 23.3263 108.492 19.0731C105.148 15.0132 99.6614 12.9511 94.175 14.2399C87.0328 15.9154 82.4229 22.6819 83.2995 29.7383C88.6885 31.2527 94.175 30.7694 98.6875 28.7073ZM111.316 24.7441C110.991 23.4552 110.537 22.2308 109.92 21.1353C109.076 25.6462 106.998 29.6739 103.979 32.7671C100.181 36.6981 94.8567 39.1147 89.0456 39.4047C92.292 41.7569 96.5124 42.7557 100.733 41.7569C108.362 39.9525 113.102 32.3483 111.316 24.7441Z" fill="#0093C9"/>
<path d="M81.2868 32.7348C81.2219 32.6703 81.1894 32.5737 81.1245 32.5092C81.1894 32.5737 81.2544 32.6703 81.2868 32.7348ZM81.7089 33.4114C81.6764 33.347 81.6115 33.2825 81.579 33.2181C81.6439 33.2825 81.6764 33.347 81.7089 33.4114Z" fill="#0093D0"/>
<path d="M101.285 30.8022C106.576 27.129 109.953 21.0391 110.115 14.1438C109.758 20.9425 106.154 26.9034 100.733 30.3833C95.3438 33.8632 88.0718 34.8621 81.0596 32.381C81.092 32.4132 81.1245 32.4777 81.1245 32.5099C81.1894 32.5743 81.2219 32.671 81.2868 32.7355L81.579 33.2188C81.6115 33.2832 81.6764 33.3477 81.7089 33.4121C81.7413 33.4765 81.7738 33.541 81.8062 33.5732C88.8834 35.7643 96.0255 34.5076 101.285 30.8022Z" fill="#0093C9"/>
</svg>
