<svg width="270" height="64" viewBox="0 0 270 64" fill="none" xmlns="http://www.w3.org/2000/svg">
<g clip-path="url(#clip0_1624_3)" filter="url(#filter0_d_1624_3)">
<path d="M22.714 13.329L28.1842 10.316V22.8629L29.433 23.5492L30.6817 22.8629V10.316L36.1553 13.329L37.404 11.2639L29.433 6.87842L21.4619 11.2639L22.714 13.329Z" fill="#00A3E0"/>
<path d="M19.4666 40.8834L13.9963 37.8736L25.3921 31.6017V30.226L24.1401 29.5366L12.7476 35.8085V29.7856H10.2468V38.5598L18.2179 42.9485L19.4666 40.8834Z" fill="#00A3E0"/>
<path d="M29.437 0L3.9939 14.0056V41.9976L29.437 55.9968L54.88 41.9976V14.0056L29.437 0ZM52.3692 40.6219L29.437 53.2646L6.49803 40.6219V15.3749L29.437 2.74813L52.3692 15.3749V40.6219Z" fill="#00A3E0"/>
<path d="M39.3992 15.1164L44.8695 18.1262L29.4329 26.626L13.9963 18.1262L19.4666 15.1164L18.2179 13.0513L10.2468 17.44V26.2142H12.7476V20.1913L28.1842 28.6879V45.6842L22.7139 42.6711L21.4619 44.7362L29.4329 49.1217L37.404 44.7362L36.1552 42.6711L30.6816 45.6842V28.6879L46.1216 20.1913V26.2142H48.619V17.44L40.6479 13.0513L39.3992 15.1164Z" fill="#00A3E0"/>
<path d="M46.1216 29.7856V35.8085L34.7258 29.5366L33.4771 30.2229V31.6017L44.8695 37.8736L39.3993 40.8834L40.648 42.9485L48.619 38.5598V29.7856H46.1216Z" fill="#00A3E0"/>
<path d="M52.6968 45.3394H53.3898C53.8216 45.3394 54.0359 45.5085 54.0359 45.8405C54.0415 45.9053 54.0318 45.9705 54.0075 46.0313C53.9832 46.092 53.9448 46.1468 53.8953 46.1916C53.7984 46.2636 53.6826 46.3089 53.5605 46.3224L54.0895 47.098H53.7882L53.2893 46.3416H52.988V47.098H52.7102L52.6968 45.3394ZM52.9746 46.1245H53.2626H53.4467C53.5006 46.12 53.5536 46.1082 53.604 46.0894C53.6484 46.0706 53.6857 46.0395 53.7112 46.0001C53.7436 45.9505 53.7589 45.8924 53.7547 45.8341C53.7561 45.7839 53.7434 45.7343 53.7178 45.6905C53.6923 45.6563 53.6592 45.628 53.6208 45.6075C53.578 45.5901 53.5329 45.5783 53.4869 45.5724C53.4389 45.5691 53.3908 45.5691 53.3429 45.5724H52.9746V46.1245Z" fill="#00A3E0"/>
<path d="M53.2959 48.0015C52.9265 48.0009 52.5657 47.8959 52.2589 47.6998C51.9522 47.5037 51.7133 47.2253 51.5724 46.8998C51.4315 46.5743 51.395 46.2163 51.4675 45.8711C51.5399 45.5258 51.7181 45.2087 51.9795 44.96C52.2409 44.7112 52.5737 44.5419 52.936 44.4734C53.2983 44.405 53.6737 44.4404 54.0149 44.5753C54.356 44.7102 54.6476 44.9385 54.8527 45.2313C55.0578 45.5241 55.1673 45.8684 55.1673 46.2205C55.1664 46.6931 54.9688 47.1461 54.618 47.48C54.2671 47.814 53.7916 48.0015 53.2959 48.0015ZM53.2959 44.7395C52.9888 44.7401 52.6888 44.8275 52.4338 44.9906C52.1788 45.1537 51.9802 45.3853 51.8631 45.6559C51.7461 45.9266 51.7158 46.2243 51.7761 46.5114C51.8364 46.7984 51.9846 47.062 52.202 47.2688C52.4194 47.4756 52.6962 47.6164 52.9974 47.6732C53.2986 47.7301 53.6108 47.7006 53.8944 47.5884C54.1781 47.4762 54.4205 47.2864 54.591 47.0429C54.7616 46.7995 54.8526 46.5132 54.8526 46.2205C54.8526 46.0257 54.8123 45.8329 54.734 45.653C54.6557 45.4731 54.541 45.3097 54.3964 45.1721C54.2518 45.0346 54.0802 44.9255 53.8913 44.8513C53.7025 44.7771 53.5001 44.7391 53.2959 44.7395Z" fill="#00A3E0"/>
<path d="M82.8969 35.1258C82.0164 36.2557 80.4932 37.8069 78.595 37.8069H74.3567C73.6147 37.7916 72.8899 37.5913 72.2543 37.226C71.3102 36.5875 70.4757 35.8133 69.7803 34.9311C69.4113 34.3824 69.2224 33.7411 69.2379 33.0895V22.9108C69.2238 22.2693 69.4128 21.6386 69.7803 21.1011C70.1887 20.5521 71.5446 19.1637 72.2543 18.7743C72.8963 18.4232 73.6173 18.224 74.3567 18.1934H78.595C80.4932 18.1934 82.0164 19.7893 82.8969 20.8745C83.1591 21.2376 83.3973 21.616 83.6099 22.0076L80.1517 22.9427C80.1517 22.9427 79.1474 21.7458 78.6284 21.4554C78.5879 21.43 78.5394 21.4187 78.4912 21.4235H74.4939C74.4463 21.4247 74.3995 21.4355 74.3567 21.4554C73.7521 21.8266 73.2328 22.3109 72.8301 22.8789C72.8024 22.9951 72.7911 23.1142 72.7966 23.2332V33.0575C72.7966 33.4469 73.8478 34.2864 74.3567 34.5449C74.3902 34.5768 74.5609 34.5768 74.5944 34.5768H78.4577C78.5164 34.5788 78.5748 34.5678 78.6284 34.5449C79.3382 34.2257 80.1517 33.0256 80.1517 33.0256L83.6099 33.897C83.424 34.332 83.1846 34.7445 82.8969 35.1258Z" fill="white"/>
<path d="M86.7302 37.6469V33.5742H90.8982V37.6469H86.7302Z" fill="white"/>
<path d="M105.404 37.6471V29.6676H98.0155V37.6471H94.4568V18.3208H98.0155V26.4343H105.404V18.3208H108.963V37.6471H105.404Z" fill="white"/>
<path d="M112.521 37.6469V33.5742H116.693V37.6469H112.521Z" fill="white"/>
<path d="M141.741 27.5962C141.2 28.2354 140.587 28.8156 139.913 29.3261C139.646 29.519 139.349 29.6709 139.032 29.7761L143.05 37.6631H139.196L135.434 30.0347H131.543V37.6631H127.978V18.3208H137.502C138.362 18.3274 139.2 18.575 139.913 19.0326C140.59 19.5592 141.204 20.1554 141.744 20.8104C142.143 21.3978 142.355 22.083 142.353 22.7829V25.6236C142.359 26.3245 142.145 27.011 141.741 27.5962ZM138.791 22.8085C138.793 22.7317 138.781 22.6553 138.758 22.5818C138.554 22.2244 138.011 21.5796 137.673 21.5477H131.543V26.7822H137.502C137.807 26.7822 138.487 26.1662 138.758 25.7162C138.779 25.6753 138.79 25.6307 138.791 25.5853V22.8085Z" fill="white"/>
<path d="M161.195 34.8992C160.756 35.4482 159.434 36.8398 158.721 37.226C158.083 37.5873 157.36 37.7872 156.618 37.8069H151.469C150.727 37.7916 150.003 37.5913 149.367 37.226C148.654 36.8398 147.298 35.4482 146.893 34.8992C146.523 34.3511 146.334 33.7094 146.351 33.0575V22.9427C146.334 22.2909 146.523 21.6492 146.893 21.1011C147.298 20.5521 148.654 19.1637 149.367 18.7743C150.003 18.409 150.727 18.2087 151.469 18.1934H156.618C157.36 18.2131 158.083 18.413 158.721 18.7743C159.434 19.1637 160.756 20.5521 161.195 21.1011C161.565 21.6492 161.754 22.2909 161.737 22.9427V33.0575C161.754 33.7094 161.565 34.3511 161.195 34.8992ZM149.909 33.0256C149.909 33.0256 149.909 33.1214 149.943 33.1533C150.34 33.7052 150.846 34.1779 151.433 34.5449C151.486 34.5678 151.545 34.5788 151.603 34.5768H156.484C156.542 34.5765 156.599 34.5657 156.652 34.5449C157.24 34.1782 157.747 33.7055 158.145 33.1533C158.165 33.1134 158.177 33.0699 158.178 33.0256V23.0385C158.178 23.0385 158.178 22.9108 158.145 22.8789C157.746 22.319 157.239 21.836 156.652 21.4554C156.599 21.4323 156.542 21.4213 156.484 21.4235H151.603C151.603 21.4235 151.469 21.4235 151.433 21.4554C150.851 21.8374 150.35 22.3203 149.956 22.8789C149.934 22.9296 149.923 22.9838 149.923 23.0385L149.909 33.0256Z" fill="white"/>
<path d="M179.872 35.1894C179.344 35.8345 178.741 36.4202 178.074 36.9353C177.35 37.393 176.502 37.6403 175.634 37.6471H166.109V18.3208H175.634C176.508 18.329 177.36 18.5881 178.077 19.0645C178.744 19.5796 179.347 20.1653 179.875 20.8104C180.272 21.4092 180.472 22.107 180.451 22.8148V25.2055C180.451 26.562 179.909 27.2738 179.112 28.0175C179.892 28.758 180.451 29.4378 180.451 30.7943V33.252C180.463 33.9382 180.261 34.6124 179.872 35.1894ZM176.889 25.1417V22.8468C176.885 22.7914 176.873 22.7368 176.855 22.684C176.551 22.1669 175.905 21.5541 175.6 21.5541H169.668V26.4343H175.634C175.938 26.4343 176.618 25.8502 176.855 25.3651C176.883 25.2936 176.894 25.2175 176.889 25.1417ZM176.889 33.1211V30.8262C176.89 30.7714 176.878 30.717 176.855 30.6667C176.551 30.1496 175.905 29.5687 175.6 29.5687H169.668V34.4138H175.634C175.938 34.4138 176.618 33.8329 176.855 33.3478C176.878 33.2742 176.889 33.1978 176.889 33.1211Z" fill="white"/>
<path d="M185.262 37.6471V18.3208H188.82V37.6471H185.262Z" fill="white"/>
<path d="M204.615 37.6471L197.585 24.8161V37.6471H194.04V18.3208H197.869L204.819 31.3114V18.3208H208.378V37.6471H204.615Z" fill="white"/>
<path d="M227.527 34.8992C227.119 35.4801 225.763 36.8398 225.053 37.226C224.41 37.5728 223.69 37.7717 222.951 37.8069H217.056C215.047 37.8069 213.631 36.2557 212.75 35.1258C212.518 34.8089 212.314 34.4736 212.141 34.1236L215.489 33.0575C215.915 33.6132 216.416 34.1132 216.979 34.5449C217.055 34.5705 217.136 34.5813 217.216 34.5768H222.777C222.846 34.5799 222.914 34.569 222.978 34.5449C223.487 34.2864 224.504 33.3161 224.504 33.0575V31.1425C224.505 31.0219 224.465 30.9042 224.392 30.8058C224.319 30.7075 224.215 30.6332 224.096 30.5935L215.285 28.1996C213.557 27.7496 212.64 26.1633 212.64 24.6887V22.9427C212.62 22.295 212.797 21.6556 213.149 21.1011C213.857 20.2081 214.703 19.4235 215.66 18.7743C216.3 18.4228 217.02 18.2235 217.759 18.1934H222.78C224.812 18.1934 226.202 19.7893 227.082 20.8745C227.346 21.2289 227.571 21.6086 227.752 22.0076L224.34 22.9427C223.929 22.3757 223.426 21.8737 222.851 21.4554C222.851 21.4554 222.817 21.4235 222.646 21.4235H217.869C217.799 21.4203 217.73 21.4311 217.665 21.4554C217.123 21.7139 216.205 22.6204 216.205 22.8789V24.494C216.199 24.6111 216.231 24.7271 216.298 24.8257C216.365 24.9242 216.462 25.0002 216.577 25.0429L225.422 27.5006C227.153 27.9507 228.066 29.5689 228.066 31.0116V33.048C228.094 33.7036 227.906 34.351 227.527 34.8992Z" fill="white"/>
<path d="M246.747 34.8992C246.305 35.4482 244.983 36.8398 244.273 37.226C243.635 37.5873 242.912 37.7872 242.171 37.8069H237.018C236.276 37.7916 235.552 37.5913 234.916 37.226C234.206 36.8398 232.85 35.4482 232.442 34.8992C232.073 34.3505 231.884 33.7092 231.9 33.0575V22.9427C231.884 22.2911 232.073 21.6498 232.442 21.1011C232.85 20.5521 234.206 19.1637 234.916 18.7743C235.552 18.409 236.276 18.2087 237.018 18.1934H242.171C242.912 18.2131 243.635 18.413 244.273 18.7743C244.983 19.1637 246.305 20.5521 246.747 21.1011C247.116 21.6498 247.305 22.2911 247.289 22.9427V33.0575C247.305 33.7092 247.116 34.3505 246.747 34.8992ZM235.458 33.0256C235.458 33.0256 235.458 33.1214 235.492 33.1533C235.891 33.7047 236.398 34.1773 236.985 34.5449C237.037 34.568 237.095 34.579 237.152 34.5768H242.02C242.078 34.5766 242.136 34.5658 242.191 34.5449C242.782 34.1802 243.293 33.7085 243.694 33.1565C243.716 33.1172 243.729 33.0735 243.731 33.0288V23.0385C243.731 23.0385 243.731 22.9108 243.694 22.8789C243.296 22.3192 242.79 21.8362 242.204 21.4554C242.151 21.4319 242.092 21.4209 242.033 21.4235H237.152C237.152 21.4235 237.018 21.4235 236.985 21.4554C236.398 21.8369 235.892 22.3198 235.492 22.8789C235.47 22.9296 235.459 22.9838 235.458 23.0385V33.0256Z" fill="white"/>
<path d="M262.237 37.6471L255.207 24.8161V37.6471H251.662V18.3208H255.491L262.441 31.3114V18.3208H266V37.6471H262.237Z" fill="white"/>
</g>
<defs>
<filter id="filter0_d_1624_3" x="0" y="0" width="270" height="64" filterUnits="userSpaceOnUse" color-interpolation-filters="sRGB">
<feFlood flood-opacity="0" result="BackgroundImageFix"/>
<feColorMatrix in="SourceAlpha" type="matrix" values="0 0 0 0 0 0 0 0 0 0 0 0 0 0 0 0 0 0 127 0" result="hardAlpha"/>
<feOffset dy="4"/>
<feGaussianBlur stdDeviation="2"/>
<feComposite in2="hardAlpha" operator="out"/>
<feColorMatrix type="matrix" values="0 0 0 0 0 0 0 0 0 0 0 0 0 0 0 0 0 0 0.25 0"/>
<feBlend mode="normal" in2="BackgroundImageFix" result="effect1_dropShadow_1624_3"/>
<feBlend mode="normal" in="SourceGraphic" in2="effect1_dropShadow_1624_3" result="shape"/>
</filter>
<clipPath id="clip0_1624_3">
<rect width="262" height="56" fill="white" transform="translate(4)"/>
</clipPath>
</defs>
</svg>
