<svg width="80" height="56" viewBox="0 0 80 56" fill="none" xmlns="http://www.w3.org/2000/svg">
<rect x="0.5" y="0.5" width="79" height="55" stroke="black" stroke-opacity="0.1"/>
<g clip-path="url(#clip0_1624_2509)">
<path d="M52.103 13.9299H43.4598L38.3634 21.1221L33.267 13.9299H24.5843L34.022 27.2461L24.2319 41.07H32.8749L38.3623 33.3318L43.8118 41.07H52.4966L42.6656 27.2456L52.103 13.9299Z" fill="#F7F8FC"/>
<path d="M75.8994 17.5219C73.2522 14.9283 69.6333 13.5 65.7095 13.5C61.7834 13.5 58.1579 14.9282 55.5008 17.5214C52.8434 20.1148 51.3799 23.6517 51.3799 27.4804C51.3799 35.4729 57.5403 41.5 65.7095 41.5C73.8564 41.5 80.0001 35.4729 80.0001 27.4804C80.0001 23.6495 78.5438 20.1129 75.8994 17.5219ZM72.5057 27.4804C72.5057 31.5011 69.584 34.5331 65.7095 34.5331C61.8349 34.5331 58.9134 31.5011 58.9134 27.4804C58.9134 23.4821 61.8351 20.467 65.7095 20.467C69.5839 20.467 72.5057 23.4821 72.5057 27.4804Z" fill="#F7F8FC"/>
<path d="M23.0154 23.3754C23.0154 17.9906 18.6579 13.9299 12.8795 13.9299H0V20.6623H12.8795C14.3855 20.6623 15.5212 21.8287 15.5212 23.3754C15.5212 24.9701 14.4102 26.1276 12.8795 26.1276H0V41.07H7.25927V32.8212H11.3299L16.1116 41.07H24.2322L18.5671 31.2917C21.3601 29.5978 23.0154 26.6661 23.0154 23.3754Z" fill="#F7F8FC"/>
</g>
<defs>
<clipPath id="clip0_1624_2509">
<rect width="80" height="28" fill="white" transform="translate(0 13.5)"/>
</clipPath>
</defs>
</svg>
